<mxfile host="app.diagrams.net" agent="Mozilla/5.0 (X11; Ubuntu; Linux x86_64; rv:139.0) Gecko/20100101 Firefox/139.0" version="27.1.4">
  <diagram name="Page-1" id="swZ0b6AuEk4OKBvZsMdK">
    <mxGraphModel dx="1754" dy="1739" grid="1" gridSize="10" guides="1" tooltips="1" connect="1" arrows="1" fold="1" page="1" pageScale="1" pageWidth="827" pageHeight="1169" math="0" shadow="0">
      <root>
        <mxCell id="0" />
        <mxCell id="1" parent="0" />
        <mxCell id="1ph1AZ88ind0eyrsFidR-4" value="" style="endArrow=none;html=1;rounded=0;" parent="1" edge="1">
          <mxGeometry width="50" height="50" relative="1" as="geometry">
            <mxPoint x="-160" y="40" as="sourcePoint" />
            <mxPoint x="-160" y="760" as="targetPoint" />
          </mxGeometry>
        </mxCell>
        <mxCell id="1ph1AZ88ind0eyrsFidR-5" value="" style="endArrow=none;html=1;rounded=0;" parent="1" edge="1">
          <mxGeometry width="50" height="50" relative="1" as="geometry">
            <mxPoint x="-160" y="40" as="sourcePoint" />
            <mxPoint x="200" y="40" as="targetPoint" />
          </mxGeometry>
        </mxCell>
        <mxCell id="1ph1AZ88ind0eyrsFidR-6" value="" style="endArrow=none;html=1;rounded=0;" parent="1" edge="1">
          <mxGeometry width="50" height="50" relative="1" as="geometry">
            <mxPoint x="200" y="40" as="sourcePoint" />
            <mxPoint x="200" y="760" as="targetPoint" />
          </mxGeometry>
        </mxCell>
        <mxCell id="1ph1AZ88ind0eyrsFidR-7" value="" style="endArrow=none;html=1;rounded=0;" parent="1" edge="1">
          <mxGeometry width="50" height="50" relative="1" as="geometry">
            <mxPoint x="-160" y="760" as="sourcePoint" />
            <mxPoint x="200" y="760" as="targetPoint" />
          </mxGeometry>
        </mxCell>
        <mxCell id="1ph1AZ88ind0eyrsFidR-8" value="" style="endArrow=none;html=1;rounded=0;" parent="1" edge="1">
          <mxGeometry width="50" height="50" relative="1" as="geometry">
            <mxPoint x="-160" y="120" as="sourcePoint" />
            <mxPoint x="200" y="120" as="targetPoint" />
          </mxGeometry>
        </mxCell>
        <mxCell id="1ph1AZ88ind0eyrsFidR-23" style="edgeStyle=orthogonalEdgeStyle;rounded=0;orthogonalLoop=1;jettySize=auto;html=1;exitX=1;exitY=0.5;exitDx=0;exitDy=0;entryX=0.5;entryY=0;entryDx=0;entryDy=0;" parent="1" source="1ph1AZ88ind0eyrsFidR-9" target="1ph1AZ88ind0eyrsFidR-22" edge="1">
          <mxGeometry relative="1" as="geometry" />
        </mxCell>
        <mxCell id="1ph1AZ88ind0eyrsFidR-9" value="&lt;font style=&quot;font-size: 20px;&quot; face=&quot;Courier New&quot;&gt;ELF header&lt;/font&gt;" style="text;html=1;align=center;verticalAlign=middle;whiteSpace=wrap;rounded=0;" parent="1" vertex="1">
          <mxGeometry x="-160" y="40" width="360" height="80" as="geometry" />
        </mxCell>
        <mxCell id="1ph1AZ88ind0eyrsFidR-10" value="" style="endArrow=none;html=1;rounded=0;" parent="1" edge="1">
          <mxGeometry width="50" height="50" relative="1" as="geometry">
            <mxPoint x="-160" y="640" as="sourcePoint" />
            <mxPoint x="200" y="640" as="targetPoint" />
          </mxGeometry>
        </mxCell>
        <mxCell id="1ph1AZ88ind0eyrsFidR-11" value="" style="endArrow=none;html=1;rounded=0;" parent="1" edge="1">
          <mxGeometry width="50" height="50" relative="1" as="geometry">
            <mxPoint x="200" y="320" as="sourcePoint" />
            <mxPoint x="-160" y="320" as="targetPoint" />
          </mxGeometry>
        </mxCell>
        <mxCell id="1ph1AZ88ind0eyrsFidR-12" value="" style="endArrow=none;html=1;rounded=0;" parent="1" edge="1">
          <mxGeometry width="50" height="50" relative="1" as="geometry">
            <mxPoint x="-160" y="480" as="sourcePoint" />
            <mxPoint x="200" y="480" as="targetPoint" />
          </mxGeometry>
        </mxCell>
        <mxCell id="1ph1AZ88ind0eyrsFidR-13" value="&lt;font face=&quot;Courier New&quot; style=&quot;font-size: 20px;&quot;&gt;Section 1 (.bss)&lt;/font&gt;" style="text;html=1;align=center;verticalAlign=middle;whiteSpace=wrap;rounded=0;" parent="1" vertex="1">
          <mxGeometry x="-160" y="240" width="360" height="80" as="geometry" />
        </mxCell>
        <mxCell id="1ph1AZ88ind0eyrsFidR-14" value="&lt;font face=&quot;Courier New&quot; style=&quot;font-size: 20px;&quot;&gt;Section 2 (.data)&lt;/font&gt;" style="text;html=1;align=center;verticalAlign=middle;whiteSpace=wrap;rounded=0;" parent="1" vertex="1">
          <mxGeometry x="-160" y="320" width="360" height="160" as="geometry" />
        </mxCell>
        <mxCell id="1ph1AZ88ind0eyrsFidR-15" value="&lt;font face=&quot;Courier New&quot; style=&quot;font-size: 20px;&quot;&gt;Section 3 (.text)&lt;/font&gt;" style="text;html=1;align=center;verticalAlign=middle;whiteSpace=wrap;rounded=0;" parent="1" vertex="1">
          <mxGeometry x="-160" y="480" width="360" height="160" as="geometry" />
        </mxCell>
        <mxCell id="1ph1AZ88ind0eyrsFidR-26" style="edgeStyle=orthogonalEdgeStyle;rounded=0;orthogonalLoop=1;jettySize=auto;html=1;exitX=1;exitY=0.5;exitDx=0;exitDy=0;entryX=0.5;entryY=0;entryDx=0;entryDy=0;" parent="1" source="1ph1AZ88ind0eyrsFidR-16" target="1ph1AZ88ind0eyrsFidR-25" edge="1">
          <mxGeometry relative="1" as="geometry" />
        </mxCell>
        <mxCell id="1ph1AZ88ind0eyrsFidR-16" value="&lt;div&gt;&lt;font face=&quot;Courier New&quot; style=&quot;font-size: 20px;&quot;&gt;Section Header Table&lt;/font&gt;&lt;/div&gt;&lt;div&gt;&lt;font face=&quot;Courier New&quot; style=&quot;font-size: 20px;&quot;&gt;(array of Elf64_Shdr)&lt;/font&gt;&lt;/div&gt;" style="text;html=1;align=center;verticalAlign=middle;whiteSpace=wrap;rounded=0;" parent="1" vertex="1">
          <mxGeometry x="-160" y="640" width="360" height="120" as="geometry" />
        </mxCell>
        <mxCell id="1ph1AZ88ind0eyrsFidR-22" value="&lt;div align=&quot;left&quot;&gt;&lt;font face=&quot;Courier New&quot;&gt;typedef struct {&lt;br&gt;&amp;nbsp; &amp;nbsp; unsigned char e_ident[EI_NIDENT];&lt;br&gt;&amp;nbsp; &amp;nbsp; uint16_t&amp;nbsp; &amp;nbsp; &amp;nbsp; e_type;&lt;br&gt;&amp;nbsp; &amp;nbsp; uint16_t&amp;nbsp; &amp;nbsp; &amp;nbsp; e_machine;&lt;br&gt;&amp;nbsp; &amp;nbsp; uint32_t&amp;nbsp; &amp;nbsp; &amp;nbsp; e_version;&lt;br&gt;&amp;nbsp; &amp;nbsp; ElfN_Addr&amp;nbsp; &amp;nbsp; &amp;nbsp;e_entry;&lt;br&gt;&amp;nbsp; &amp;nbsp; ElfN_Off&amp;nbsp; &amp;nbsp; &amp;nbsp; e_phoff;&lt;br&gt;&amp;nbsp; &amp;nbsp; ElfN_Off&amp;nbsp; &amp;nbsp; &amp;nbsp; e_shoff;&lt;br&gt;&amp;nbsp; &amp;nbsp; uint32_t&amp;nbsp; &amp;nbsp; &amp;nbsp; e_flags;&lt;br&gt;&amp;nbsp; &amp;nbsp; uint16_t&amp;nbsp; &amp;nbsp; &amp;nbsp; e_ehsize;&lt;br&gt;&amp;nbsp; &amp;nbsp; uint16_t&amp;nbsp; &amp;nbsp; &amp;nbsp; e_phentsize;&lt;br&gt;&amp;nbsp; &amp;nbsp; uint16_t&amp;nbsp; &amp;nbsp; &amp;nbsp; e_phnum;&lt;br&gt;&amp;nbsp; &amp;nbsp; uint16_t&amp;nbsp; &amp;nbsp; &amp;nbsp; e_shentsize;&lt;br&gt;&amp;nbsp; &amp;nbsp; uint16_t&amp;nbsp; &amp;nbsp; &amp;nbsp; e_shnum;&lt;br&gt;&amp;nbsp; &amp;nbsp; uint16_t&amp;nbsp; &amp;nbsp; &amp;nbsp; e_shstrndx;&lt;br&gt;} ElfN_Ehdr;&lt;/font&gt;&lt;/div&gt;&lt;div align=&quot;left&quot;&gt;&lt;font face=&quot;Courier New&quot;&gt;&lt;br&gt;&lt;/font&gt;&lt;/div&gt;" style="text;html=1;align=left;verticalAlign=middle;whiteSpace=wrap;rounded=0;fillColor=none;strokeColor=#36393d;fillStyle=zigzag-line;" parent="1" vertex="1">
          <mxGeometry x="290" y="-55" width="400" height="345" as="geometry" />
        </mxCell>
        <mxCell id="1ph1AZ88ind0eyrsFidR-25" value="&lt;div align=&quot;left&quot;&gt;&lt;font face=&quot;Courier New&quot;&gt;typedef struct {&lt;br&gt;&amp;nbsp; &amp;nbsp; uint32_t&amp;nbsp; &amp;nbsp;sh_name;&amp;nbsp;&lt;br&gt;&amp;nbsp; &amp;nbsp; uint32_t&amp;nbsp; &amp;nbsp;sh_type;&lt;br&gt;&amp;nbsp; &amp;nbsp; uint64_t&amp;nbsp; &amp;nbsp;sh_flags;&lt;br&gt;&amp;nbsp; &amp;nbsp; Elf64_Addr sh_addr;&lt;br&gt;&amp;nbsp; &amp;nbsp; Elf64_Off&amp;nbsp; sh_offset;&lt;br&gt;&amp;nbsp; &amp;nbsp; uint64_t&amp;nbsp; &amp;nbsp;sh_size;&lt;br&gt;&amp;nbsp; &amp;nbsp; uint32_t&amp;nbsp; &amp;nbsp;sh_link;&lt;br&gt;&amp;nbsp; &amp;nbsp; uint32_t&amp;nbsp; &amp;nbsp;sh_info;&lt;br&gt;&amp;nbsp; &amp;nbsp; uint64_t&amp;nbsp; &amp;nbsp;sh_addralign;&lt;br&gt;&amp;nbsp; &amp;nbsp; uint64_t&amp;nbsp; &amp;nbsp;sh_entsize;&lt;br&gt;} Elf64_Shdr&lt;/font&gt;&lt;/div&gt;&lt;div align=&quot;left&quot;&gt;&lt;font face=&quot;Courier New&quot;&gt;&lt;br&gt;&lt;/font&gt;&lt;/div&gt;" style="text;html=1;align=left;verticalAlign=middle;whiteSpace=wrap;rounded=0;fillColor=none;strokeColor=#36393d;fillStyle=zigzag-line;" parent="1" vertex="1">
          <mxGeometry x="325" y="560" width="225" height="240" as="geometry" />
        </mxCell>
        <mxCell id="1ph1AZ88ind0eyrsFidR-27" value="" style="endArrow=none;html=1;rounded=0;entryX=1;entryY=0;entryDx=0;entryDy=0;" parent="1" target="1ph1AZ88ind0eyrsFidR-13" edge="1">
          <mxGeometry width="50" height="50" relative="1" as="geometry">
            <mxPoint x="-160" y="240" as="sourcePoint" />
            <mxPoint x="-110" y="190" as="targetPoint" />
          </mxGeometry>
        </mxCell>
        <mxCell id="1ph1AZ88ind0eyrsFidR-31" style="edgeStyle=orthogonalEdgeStyle;rounded=0;orthogonalLoop=1;jettySize=auto;html=1;exitX=0;exitY=0.5;exitDx=0;exitDy=0;entryX=0.5;entryY=0;entryDx=0;entryDy=0;" parent="1" source="1ph1AZ88ind0eyrsFidR-28" target="1ph1AZ88ind0eyrsFidR-30" edge="1">
          <mxGeometry relative="1" as="geometry" />
        </mxCell>
        <mxCell id="1ph1AZ88ind0eyrsFidR-28" value="&lt;div&gt;&lt;font face=&quot;Courier New&quot; style=&quot;font-size: 20px;&quot;&gt;Program Header Table&lt;/font&gt;&lt;/div&gt;&lt;div&gt;&lt;font face=&quot;Courier New&quot; style=&quot;font-size: 20px;&quot;&gt;(array of Elf64_Phdr)&lt;/font&gt;&lt;/div&gt;" style="text;html=1;align=center;verticalAlign=middle;whiteSpace=wrap;rounded=0;" parent="1" vertex="1">
          <mxGeometry x="-160" y="120" width="360" height="120" as="geometry" />
        </mxCell>
        <mxCell id="1ph1AZ88ind0eyrsFidR-30" value="&lt;font face=&quot;Courier New&quot;&gt;typedef struct {&lt;br&gt;&amp;nbsp; &amp;nbsp; uint32_t&amp;nbsp; &amp;nbsp;p_type;&lt;br&gt;&amp;nbsp; &amp;nbsp; uint32_t&amp;nbsp; &amp;nbsp;p_flags;&lt;br&gt;&amp;nbsp; &amp;nbsp; Elf64_Off&amp;nbsp; p_offset;&lt;br&gt;&amp;nbsp; &amp;nbsp; Elf64_Addr p_vaddr;&lt;br&gt;&amp;nbsp; &amp;nbsp; Elf64_Addr p_paddr;&lt;br&gt;&amp;nbsp; &amp;nbsp; uint64_t&amp;nbsp; &amp;nbsp;p_filesz;&lt;br&gt;&amp;nbsp; &amp;nbsp; uint64_t&amp;nbsp; &amp;nbsp;p_memsz;&lt;br&gt;&amp;nbsp; &amp;nbsp; uint64_t&amp;nbsp; &amp;nbsp;p_align;&lt;br&gt;} Elf64_Phdr;&lt;/font&gt;" style="text;html=1;align=left;verticalAlign=middle;whiteSpace=wrap;rounded=0;fillColor=none;strokeColor=#36393d;fillStyle=zigzag-line;" parent="1" vertex="1">
          <mxGeometry x="-500" y="240" width="200" height="190" as="geometry" />
        </mxCell>
        <mxCell id="1ph1AZ88ind0eyrsFidR-33" value="" style="endArrow=none;html=1;rounded=0;fillColor=#ffcd28;gradientColor=#ffa500;strokeColor=light-dark(#D79B00,#CCCC00);strokeWidth=2;" parent="1" edge="1">
          <mxGeometry width="50" height="50" relative="1" as="geometry">
            <mxPoint x="-130" y="250" as="sourcePoint" />
            <mxPoint x="180" y="250" as="targetPoint" />
          </mxGeometry>
        </mxCell>
        <mxCell id="1ph1AZ88ind0eyrsFidR-35" value="" style="endArrow=none;html=1;rounded=0;fillColor=#ffcd28;gradientColor=#ffa500;strokeColor=light-dark(#D79B00,#CCCC00);strokeWidth=2;" parent="1" edge="1">
          <mxGeometry width="50" height="50" relative="1" as="geometry">
            <mxPoint x="180" y="250" as="sourcePoint" />
            <mxPoint x="180" y="470" as="targetPoint" />
          </mxGeometry>
        </mxCell>
        <mxCell id="1ph1AZ88ind0eyrsFidR-36" value="" style="endArrow=none;html=1;rounded=0;fillColor=#ffcd28;gradientColor=#ffa500;strokeColor=light-dark(#D79B00,#CCCC00);strokeWidth=2;" parent="1" edge="1">
          <mxGeometry width="50" height="50" relative="1" as="geometry">
            <mxPoint x="-130" y="470" as="sourcePoint" />
            <mxPoint x="180" y="470" as="targetPoint" />
          </mxGeometry>
        </mxCell>
        <mxCell id="1ph1AZ88ind0eyrsFidR-37" value="" style="endArrow=none;html=1;rounded=0;fillColor=#ffcd28;gradientColor=#ffa500;strokeColor=light-dark(#D79B00,#CCCC00);strokeWidth=2;" parent="1" edge="1">
          <mxGeometry width="50" height="50" relative="1" as="geometry">
            <mxPoint x="-130" y="250" as="sourcePoint" />
            <mxPoint x="-130" y="470" as="targetPoint" />
          </mxGeometry>
        </mxCell>
        <mxCell id="1ph1AZ88ind0eyrsFidR-38" value="" style="endArrow=none;html=1;rounded=0;fillColor=#ffcd28;gradientColor=#ffa500;strokeColor=light-dark(#D79B00,#CCCC00);strokeWidth=2;" parent="1" edge="1">
          <mxGeometry width="50" height="50" relative="1" as="geometry">
            <mxPoint x="-130" y="489" as="sourcePoint" />
            <mxPoint x="180" y="489" as="targetPoint" />
          </mxGeometry>
        </mxCell>
        <mxCell id="1ph1AZ88ind0eyrsFidR-39" value="" style="endArrow=none;html=1;rounded=0;fillColor=#ffcd28;gradientColor=#ffa500;strokeColor=light-dark(#D79B00,#CCCC00);strokeWidth=2;" parent="1" edge="1">
          <mxGeometry width="50" height="50" relative="1" as="geometry">
            <mxPoint x="180" y="490" as="sourcePoint" />
            <mxPoint x="180" y="620" as="targetPoint" />
          </mxGeometry>
        </mxCell>
        <mxCell id="1ph1AZ88ind0eyrsFidR-41" value="" style="endArrow=none;html=1;rounded=0;fillColor=#ffcd28;gradientColor=#ffa500;strokeColor=light-dark(#D79B00,#CCCC00);strokeWidth=2;" parent="1" edge="1">
          <mxGeometry width="50" height="50" relative="1" as="geometry">
            <mxPoint x="-130" y="620" as="sourcePoint" />
            <mxPoint x="180" y="620" as="targetPoint" />
          </mxGeometry>
        </mxCell>
        <mxCell id="1ph1AZ88ind0eyrsFidR-42" value="" style="endArrow=none;html=1;rounded=0;fillColor=#ffcd28;gradientColor=#ffa500;strokeColor=light-dark(#D79B00,#CCCC00);strokeWidth=2;" parent="1" edge="1">
          <mxGeometry width="50" height="50" relative="1" as="geometry">
            <mxPoint x="-130" y="490" as="sourcePoint" />
            <mxPoint x="-130" y="620" as="targetPoint" />
          </mxGeometry>
        </mxCell>
        <mxCell id="1ph1AZ88ind0eyrsFidR-43" value="" style="curved=1;endArrow=classic;html=1;rounded=0;fillColor=#ffcd28;gradientColor=#ffa500;strokeColor=light-dark(#D79B00,#CCCC00);strokeWidth=2;" parent="1" edge="1">
          <mxGeometry width="50" height="50" relative="1" as="geometry">
            <mxPoint x="180" y="360" as="sourcePoint" />
            <mxPoint x="330" y="370" as="targetPoint" />
            <Array as="points">
              <mxPoint x="270" y="320" />
              <mxPoint x="320" y="340" />
            </Array>
          </mxGeometry>
        </mxCell>
        <mxCell id="1ph1AZ88ind0eyrsFidR-44" value="&lt;font face=&quot;Courier New&quot; style=&quot;font-size: 20px; color: light-dark(rgb(0, 0, 0), rgb(204, 204, 0));&quot;&gt;Segment 1 (data segment)&lt;/font&gt;" style="text;html=1;align=center;verticalAlign=middle;whiteSpace=wrap;rounded=0;" parent="1" vertex="1">
          <mxGeometry x="240" y="380" width="175" height="30" as="geometry" />
        </mxCell>
        <mxCell id="1ph1AZ88ind0eyrsFidR-45" value="&lt;font face=&quot;Courier New&quot; style=&quot;font-size: 20px; color: light-dark(rgb(0, 0, 0), rgb(204, 204, 0));&quot;&gt;Segment 2 (text segment)&lt;/font&gt;" style="text;html=1;align=center;verticalAlign=middle;whiteSpace=wrap;rounded=0;" parent="1" vertex="1">
          <mxGeometry x="-420" y="580" width="175" height="30" as="geometry" />
        </mxCell>
        <mxCell id="1ph1AZ88ind0eyrsFidR-46" value="" style="curved=1;endArrow=classic;html=1;rounded=0;strokeColor=light-dark(#000000,#CCCC00);strokeWidth=2;" parent="1" edge="1">
          <mxGeometry width="50" height="50" relative="1" as="geometry">
            <mxPoint x="-130" y="550" as="sourcePoint" />
            <mxPoint x="-330" y="560" as="targetPoint" />
            <Array as="points">
              <mxPoint x="-240" y="520" />
              <mxPoint x="-290" y="520" />
            </Array>
          </mxGeometry>
        </mxCell>
      </root>
    </mxGraphModel>
  </diagram>
</mxfile>
